<svg width="1080" height="1080" viewBox="0 0 1080 1080" fill="none" xmlns="http://www.w3.org/2000/svg">
<rect width="1080" height="1080" rx="540" fill="#2A2312"/>
<path d="M486.614 268.346C452.008 269.071 423.874 245.312 424.679 209.548C425.263 183.155 443.387 160.437 469.169 153.732C475.873 151.997 484.23 151.813 494.24 153.18C494.515 153.218 494.795 153.183 495.052 153.077C495.31 152.972 495.536 152.801 495.708 152.58C518.679 122.858 565.143 116.548 596.087 136.631C601.802 140.343 607.107 144.487 612.001 149.062C612.226 149.269 612.505 149.407 612.804 149.46C613.104 149.514 613.411 149.479 613.69 149.362C652.923 132.939 696.198 162.661 694.635 205.478C693.403 239.333 665.601 261.152 632.62 260.947C632.413 260.944 632.207 260.983 632.015 261.061C631.822 261.138 631.647 261.252 631.499 261.397C631.351 261.543 631.233 261.715 631.152 261.906C631.07 262.096 631.028 262.301 631.025 262.508C630.994 270.523 630.268 278.6 630.283 286.756C630.283 289.48 629.615 292.125 628.278 294.692C628.179 294.878 628.044 295.043 627.88 295.177C627.716 295.311 627.527 295.411 627.325 295.471C627.122 295.531 626.909 295.551 626.699 295.528C626.489 295.505 626.285 295.441 626.1 295.339C590.767 275.524 558.149 267.983 519.232 282.229C511.78 284.958 503.728 289.217 496.071 293.004C485.699 298.147 487.972 274.546 488.225 270.018C488.238 269.8 488.206 269.582 488.13 269.377C488.055 269.173 487.938 268.986 487.787 268.829C487.635 268.672 487.453 268.548 487.251 268.465C487.049 268.381 486.833 268.341 486.614 268.346ZM494.382 184.811C491.73 177.412 492.709 166.574 492.787 158.575C492.792 158.197 492.659 157.83 492.412 157.54C492.166 157.251 491.823 157.058 491.445 156.998C480.268 155.294 470.358 156.43 461.717 160.405C406.618 185.773 423.732 268.172 486.52 264.433C486.922 264.409 487.299 264.234 487.575 263.943C487.851 263.653 488.004 263.27 488.004 262.871L488.114 250.408C488.115 250.126 488.041 249.849 487.899 249.605C487.758 249.361 487.554 249.159 487.309 249.02C474.163 241.521 467.406 230.11 467.038 214.786C467.037 214.736 467.041 214.687 467.048 214.64C467.056 214.594 467.067 214.552 467.081 214.518C467.095 214.484 467.111 214.459 467.128 214.446C467.145 214.432 467.163 214.429 467.18 214.439L467.574 214.549C467.687 214.581 467.789 214.646 467.867 214.735C467.946 214.824 467.997 214.935 468.016 215.054C469.753 224.709 478.468 244.697 490.467 244.05C490.766 244.04 491.051 243.947 491.288 243.782C500.802 237.219 511.091 232.181 522.153 228.669C522.547 228.543 522.876 228.265 523.067 227.896C523.259 227.528 523.299 227.097 523.179 226.697L519.99 216.3C519.931 216.123 519.936 215.931 520.006 215.757C520.075 215.584 520.204 215.441 520.369 215.354C520.958 215.038 521.374 215.29 521.616 216.111C535.415 263.376 641.382 263.171 654.912 214.581C654.932 214.501 654.97 214.425 655.025 214.357C655.079 214.289 655.148 214.231 655.228 214.186C655.818 213.871 656.018 214.228 655.828 215.259C653.66 227.407 646.308 237.424 633.773 245.312C631.225 246.911 630.152 248.704 630.552 250.692L631.594 255.819C631.665 256.17 631.853 256.486 632.125 256.715C632.398 256.944 632.739 257.074 633.094 257.081C692.487 258.612 713.533 181.119 660.249 154.426C645.945 147.264 631.646 146.591 617.353 152.407C617.112 152.504 616.898 152.659 616.731 152.858C616.564 153.057 616.449 153.294 616.395 153.549C616.342 153.803 616.353 154.067 616.426 154.316C616.5 154.566 616.634 154.793 616.816 154.978C626.573 164.854 638.535 170.302 652.702 171.322C653.028 171.343 653.323 171.443 653.586 171.622C654.302 172.095 654.234 172.348 653.381 172.379C634.741 173.137 619.758 166.774 608.433 153.29C604.244 148.295 601.35 145.139 599.75 143.825C575.816 124.199 534.909 123.663 510.565 143.052C504.344 148.005 498.203 153.196 496.356 160.011C494.524 166.784 494.114 174.967 495.124 184.559C495.134 184.63 495.129 184.701 495.11 184.764C495.091 184.828 495.057 184.882 495.014 184.921L494.871 185.032C494.836 185.063 494.793 185.081 494.746 185.086C494.699 185.091 494.649 185.083 494.601 185.061C494.553 185.039 494.508 185.005 494.47 184.961C494.431 184.918 494.401 184.866 494.382 184.811ZM580.631 273.331C595.871 276.213 610.27 281.729 623.826 289.88C624.059 290.023 624.325 290.102 624.598 290.109C624.871 290.117 625.142 290.051 625.383 289.921C625.624 289.79 625.827 289.598 625.972 289.364C626.118 289.13 626.2 288.862 626.21 288.586C626.452 281.95 626.794 275.166 627.236 268.235C627.6 262.698 626.826 257.239 626.605 251.828C626.594 251.578 626.524 251.333 626.4 251.115C626.276 250.898 626.102 250.712 625.892 250.575C625.682 250.438 625.443 250.353 625.193 250.326C624.944 250.3 624.692 250.333 624.458 250.424C594.193 262.067 553.618 260.521 529.984 235.705C526.936 232.518 525.01 231.319 520.842 232.912C512.317 236.194 504.128 240.038 496.277 244.445C493.529 245.991 492.156 248.084 492.156 250.724V288.933C492.156 290.763 492.945 291.216 494.524 290.29C521.332 274.735 549.687 267.494 580.631 273.331Z" fill="#C09F41"/>
<path d="M494.871 185.032L495.014 184.921C495.057 184.882 495.091 184.828 495.11 184.764C495.129 184.701 495.134 184.63 495.124 184.559C494.114 174.967 494.524 166.784 496.356 160.011C498.203 153.196 504.344 148.005 510.565 143.052C534.909 123.663 575.816 124.199 599.75 143.825C601.35 145.139 604.244 148.295 608.433 153.29C619.758 166.774 634.741 173.137 653.381 172.379C654.234 172.348 654.302 172.095 653.586 171.622C653.323 171.443 653.028 171.343 652.702 171.322C638.535 170.302 626.573 164.854 616.816 154.978C616.634 154.793 616.5 154.566 616.426 154.316C616.353 154.067 616.342 153.803 616.395 153.549C616.449 153.294 616.564 153.057 616.731 152.858C616.898 152.659 617.112 152.504 617.353 152.407C631.646 146.591 645.945 147.264 660.249 154.426C713.533 181.119 692.487 258.612 633.094 257.081C632.739 257.074 632.398 256.944 632.125 256.715C631.853 256.486 631.665 256.17 631.594 255.819L630.552 250.692C630.152 248.704 631.225 246.911 633.773 245.312C646.308 237.424 653.66 227.407 655.828 215.259C656.018 214.228 655.818 213.871 655.228 214.186C655.148 214.231 655.079 214.289 655.025 214.357C654.97 214.425 654.932 214.501 654.912 214.581C641.382 263.171 535.415 263.376 521.616 216.111C521.374 215.29 520.958 215.038 520.369 215.354C520.204 215.441 520.075 215.584 520.006 215.757C519.936 215.931 519.931 216.123 519.99 216.3L523.179 226.697C523.299 227.097 523.259 227.528 523.067 227.896C522.876 228.265 522.547 228.543 522.153 228.669C511.091 232.181 500.802 237.219 491.288 243.782C491.051 243.947 490.766 244.04 490.467 244.05C478.468 244.697 469.753 224.709 468.016 215.054C467.997 214.935 467.946 214.824 467.867 214.735C467.789 214.646 467.687 214.581 467.574 214.549L467.18 214.439C467.163 214.429 467.145 214.432 467.128 214.446C467.111 214.459 467.095 214.484 467.081 214.518C467.067 214.552 467.056 214.594 467.048 214.64C467.041 214.687 467.037 214.736 467.038 214.786C467.406 230.11 474.163 241.521 487.309 249.02C487.554 249.159 487.758 249.361 487.899 249.605C488.041 249.849 488.115 250.126 488.114 250.408L488.004 262.871C488.004 263.27 487.851 263.653 487.575 263.943C487.299 264.234 486.922 264.409 486.52 264.433C423.732 268.172 406.618 185.773 461.717 160.405C470.358 156.43 480.268 155.294 491.445 156.998C491.823 157.058 492.166 157.251 492.412 157.54C492.659 157.83 492.792 158.197 492.787 158.575C492.709 166.574 491.73 177.412 494.382 184.811C494.401 184.866 494.431 184.918 494.47 184.961C494.508 185.005 494.553 185.039 494.601 185.061C494.649 185.083 494.699 185.091 494.746 185.086C494.793 185.081 494.836 185.063 494.871 185.032Z" fill="#2A2312"/>
<path d="M580.631 273.331C549.687 267.494 521.332 274.735 494.524 290.29C492.945 291.216 492.156 290.763 492.156 288.933V250.724C492.156 248.084 493.529 245.991 496.277 244.445C504.128 240.038 512.317 236.194 520.842 232.912C525.01 231.319 526.936 232.518 529.984 235.705C553.618 260.521 594.193 262.067 624.458 250.424C624.692 250.333 624.944 250.3 625.193 250.326C625.443 250.353 625.682 250.438 625.892 250.575C626.102 250.712 626.276 250.898 626.4 251.115C626.524 251.333 626.594 251.578 626.605 251.828C626.826 257.239 627.6 262.698 627.236 268.235C626.794 275.166 626.452 281.95 626.21 288.586C626.2 288.862 626.118 289.13 625.972 289.364C625.827 289.598 625.624 289.79 625.383 289.921C625.142 290.051 624.871 290.117 624.598 290.109C624.325 290.102 624.059 290.023 623.826 289.88C610.27 281.729 595.871 276.213 580.631 273.331Z" fill="#2A2312"/>
<path d="M429.92 486.498C429.624 486.386 429.369 486.186 429.188 485.924C429.008 485.662 428.911 485.35 428.91 485.031C428.899 463.081 428.889 441.178 428.878 419.323C428.847 377.532 445.819 341.358 478.562 315.958C550.034 260.505 657.58 294.85 683.157 382.028C688.493 400.202 688.745 421.011 688.256 440.589C687.893 454.662 688.224 467.188 688.098 481.449C688.056 486.119 685.988 487.881 681.894 486.734C681.595 486.65 681.327 486.479 681.125 486.243C680.923 486.008 680.795 485.717 680.757 485.409C677.141 456.034 683.393 425.365 677.978 396.385C666.264 333.769 612.917 294.329 549.639 298.147C491.824 301.649 445.929 344.008 438.098 400.739C434.814 424.529 436.756 454.819 436.804 480.661C436.804 485.252 435.509 488.659 429.92 486.498Z" fill="#C09F41"/>
<path d="M550.065 318.151C550.523 316.132 539.203 308.906 540.719 307.265C540.792 307.194 540.885 307.149 540.983 307.137C541.081 307.126 541.177 307.149 541.256 307.202C550.744 313.655 558.527 315.895 557.77 329.526C557.749 329.899 557.592 330.254 557.329 330.525C557.066 330.797 556.713 330.968 556.333 331.009C553.481 331.271 550.844 331.066 548.423 330.393C542.74 328.816 537.451 319.855 534.104 315.09C534.01 314.958 533.969 314.796 533.99 314.635C534.01 314.474 534.09 314.327 534.214 314.223C535.098 313.481 541.792 320.722 542.834 321.732C544.508 323.357 544.997 321.401 544.082 320.155C543.371 319.176 535.083 309.742 536.709 309.443C536.797 309.423 536.89 309.423 536.981 309.445C537.071 309.467 537.156 309.509 537.23 309.569L548.439 318.703C548.572 318.812 548.73 318.886 548.9 318.917C549.069 318.947 549.243 318.934 549.406 318.879C549.569 318.824 549.715 318.728 549.83 318.601C549.945 318.473 550.026 318.318 550.065 318.151Z" fill="#C09F41"/>
<path d="M538.698 359.374C532.004 356.219 534.751 353.41 538.367 350.097C546.924 342.272 557.486 334.81 565.001 326.086C565.226 325.82 565.359 325.482 565.38 325.124C565.948 313.639 572.221 307.807 584.199 307.628C584.595 307.619 584.98 307.764 585.277 308.034C585.573 308.303 585.757 308.677 585.793 309.079C586.583 318.876 581.846 326.78 571.869 327.317C568.964 327.474 566.459 328.773 564.354 331.213C556.491 340.342 548.566 349.598 540.577 358.979C540.351 359.242 540.044 359.423 539.705 359.495C539.365 359.566 539.011 359.523 538.698 359.374Z" fill="#C09F41"/>
<path d="M584.974 352.879L567.814 336.435C566.549 335.223 564.54 335.265 563.327 336.529L563.152 336.711C561.939 337.975 561.981 339.982 563.246 341.195L580.407 357.639C581.672 358.851 583.681 358.809 584.894 357.545L585.068 357.363C586.281 356.099 586.239 354.092 584.974 352.879Z" fill="#C09F41"/>
<path d="M623.605 419.26C624.258 409.91 624.337 403.447 623.842 399.871C618.253 360.084 562.127 363.665 562.159 404.257C562.212 470.369 562.264 536.492 562.317 602.626C562.317 602.927 562.233 603.222 562.073 603.476C561.914 603.73 561.686 603.933 561.417 604.062C557.47 605.955 554.328 604.282 554.344 599.786C554.565 548.756 554.444 497.741 553.981 446.742C553.902 438.602 550.934 431.755 544.887 426.06C533.12 414.932 519.406 414.075 503.744 423.488C503.492 423.64 503.203 423.719 502.911 423.716C502.618 423.714 502.332 423.629 502.086 423.472C496.403 419.923 500.286 415.868 504.297 413.912C521.484 405.54 537.172 407.68 551.36 420.333C553.107 421.889 553.986 421.5 553.997 419.165C554.018 412.907 554.023 406.587 554.012 400.202C553.981 389.648 546.197 379.709 536.914 374.898C521.158 366.694 501.265 374.598 494.713 391.179C493.482 394.302 492.871 398.404 492.882 403.484C493.119 459.931 492.977 516.52 492.771 574.229C492.766 574.483 492.702 574.732 492.584 574.954C492.466 575.176 492.297 575.366 492.093 575.507C486.851 579.151 485.004 575.112 485.004 570.774C484.878 517.335 484.735 463.901 484.578 410.473C484.562 406.671 484.925 402.6 485.099 398.593C486.235 372.673 514.795 357.67 537.151 366.079C545.276 369.129 551.934 374.472 557.123 382.107C557.268 382.321 557.464 382.496 557.694 382.616C557.923 382.737 558.178 382.799 558.437 382.797C558.696 382.795 558.951 382.73 559.178 382.607C559.406 382.484 559.6 382.307 559.743 382.091C567.069 370.985 577.115 364.817 589.882 363.586C607.58 361.898 625.878 373.872 630.599 391.462C631.652 395.396 632.178 403.111 632.178 414.606C632.167 467.929 631.978 521.289 631.609 574.686C631.61 575.001 631.513 575.308 631.333 575.567C631.152 575.827 630.896 576.026 630.599 576.138C625.978 577.915 623.679 576.327 623.7 571.373C623.805 530.881 623.868 490.389 623.889 449.897C623.905 423.22 601.218 410.93 576.936 420.901C576.698 420.998 576.442 421.038 576.189 421.016C575.936 420.994 575.694 420.911 575.484 420.775C573.137 419.271 572.516 417.246 573.621 414.701C573.764 414.373 574.014 414.101 574.331 413.928C588.209 406.576 603.191 407.223 615.79 416.452C617.558 417.756 619.316 419.076 621.063 420.412C622.621 421.59 623.468 421.206 623.605 419.26Z" fill="#C09F41"/>
<path d="M356.096 577.069C354.917 576.711 354.481 576.001 354.786 574.939C363.832 544.57 385.177 518.05 411.701 501.044C413.059 500.176 414.527 498.851 415.237 501.722C415.317 502.043 415.294 502.38 415.172 502.686C415.05 502.992 414.835 503.25 414.559 503.426C387.172 521.011 368.337 545.222 358.054 576.059C357.923 576.452 357.644 576.777 357.278 576.966C356.912 577.155 356.487 577.192 356.096 577.069Z" fill="#C09F41"/>
<path d="M704.755 504.782C703.397 503.725 702.434 503.394 702.055 501.422C701.655 499.308 702.323 498.893 704.06 500.176C729.215 518.781 746.445 543.019 755.749 572.888C756.207 574.339 756.965 577.921 754.313 577.1C754.066 577.023 753.841 576.886 753.66 576.702C753.478 576.517 753.344 576.291 753.271 576.043C744.535 547.215 728.363 523.461 704.755 504.782Z" fill="#C09F41"/>
<path d="M354.959 594.754C353.033 593.944 350.965 593.555 348.755 593.586C336.767 593.712 325.352 596.352 314.511 601.506C277.599 619.033 242.424 639.779 206.696 638.043C163.264 635.929 173.305 571.72 209.554 590.163C209.851 590.316 210.094 590.565 210.248 590.873C213.08 596.584 211.669 599.954 206.017 600.985C205.259 601.127 203.176 600.528 203.791 599.471C203.895 599.298 204.046 599.16 204.225 599.073C204.405 598.986 204.605 598.954 204.802 598.982C208.58 599.507 210.212 598.345 209.696 595.495C208.97 591.393 204.533 589.816 200.87 589.421C173.1 586.55 175.91 630.755 203.996 633.547C222.705 635.409 244.35 628.341 261.796 620.863C277.468 614.153 293.113 607.39 308.733 600.575C320.132 595.6 328.51 592.734 333.867 591.977C343.287 590.631 350.223 590.594 354.675 591.867C358.559 592.955 359.854 593.917 363.785 591.851C378.625 584.089 400.081 580.792 412.317 595.7C418.126 602.799 417.653 611.334 411.196 617.976C410.954 618.228 410.706 618.428 410.454 618.576C408.948 619.448 408.722 619.196 409.775 617.818C422.105 601.758 405.086 588.664 389.582 588.333C381.415 588.164 373.752 590.157 366.595 594.312C366.246 594.516 365.989 594.847 365.878 595.237C365.766 595.628 365.808 596.047 365.995 596.41C366.532 597.43 367.153 598.361 367.858 599.202C379.225 612.738 369.011 632.995 352.37 634.336C334.167 635.819 336.093 617.771 344.713 608.337C348.155 604.551 351.733 600.89 355.449 597.357C355.64 597.175 355.782 596.949 355.863 596.698C355.944 596.448 355.961 596.181 355.913 595.922C355.864 595.663 355.751 595.421 355.585 595.217C355.418 595.013 355.203 594.853 354.959 594.754ZM342.913 629.919C355.433 643.502 384.356 614.316 363.106 598.003C362.859 597.812 362.559 597.699 362.247 597.679C361.934 597.659 361.623 597.734 361.354 597.893C353.175 602.642 332.841 618.986 342.913 629.919Z" fill="#C09F41"/>
<path d="M756.238 597.814C762.127 603.367 773.983 617.061 770.747 627.032C764.211 647.115 726.004 624.476 745.771 596.947C746.006 596.611 746.104 596.197 746.042 595.792C745.98 595.386 745.764 595.02 745.439 594.769C742.66 592.645 738.856 590.899 734.024 589.532C717.731 584.941 694.397 596.962 705.622 615.957C705.954 616.509 706.175 617.519 705.149 617.377C705.069 617.367 704.991 617.341 704.92 617.3C704.85 617.26 704.788 617.205 704.738 617.14C699.002 610.03 698.707 602.873 703.854 595.669C714.353 580.918 736.44 583.127 749.497 593.365C749.715 593.529 749.97 593.636 750.238 593.674C750.505 593.713 750.777 593.683 751.028 593.586C765.805 588.08 782.682 592.797 795.518 599.076C808.653 605.513 821.805 611.929 834.972 618.323C855.717 628.388 901.312 648.85 911.937 615.073C916.547 600.417 904.77 582.243 887.419 592.103C887.2 592.224 887.014 592.397 886.876 592.606C886.739 592.815 886.654 593.054 886.629 593.302C886.198 597.246 887.45 599.402 890.387 599.77C890.492 599.785 890.592 599.825 890.678 599.887C890.763 599.949 890.833 600.031 890.88 600.126C890.926 600.221 890.949 600.326 890.946 600.432C890.943 600.538 890.913 600.641 890.861 600.733C889.392 603.289 885.208 597.751 885.287 595.59C885.461 590.605 889.771 587.875 894.381 587.355C919.973 584.452 921.41 619.601 905.291 632.08C879.825 651.769 824.599 619.033 800.965 605.828C786.566 597.767 774.252 592.939 757.58 594.075C754.285 594.307 753.838 595.553 756.238 597.814ZM749.228 628.325C759.869 639.021 776.241 629.682 766.674 614.774C762.495 608.263 757.033 602.579 750.286 597.72C749.959 597.489 749.559 597.389 749.164 597.439C748.769 597.489 748.409 597.685 748.155 597.988C739.25 608.558 739.608 618.67 749.228 628.325Z" fill="#C09F41"/>
<path d="M627.773 602.295C630.048 602.295 631.893 600.451 631.893 598.177C631.893 595.903 630.048 594.06 627.773 594.06C625.497 594.06 623.652 595.903 623.652 598.177C623.652 600.451 625.497 602.295 627.773 602.295Z" fill="#C09F41"/>
<path d="M342.913 629.919C332.841 618.986 353.175 602.642 361.354 597.893C361.623 597.734 361.934 597.659 362.247 597.679C362.559 597.699 362.859 597.812 363.106 598.003C384.356 614.316 355.433 643.502 342.913 629.919Z" fill="#2A2312"/>
<path d="M749.228 628.325C739.608 618.67 739.25 608.558 748.155 597.988C748.409 597.685 748.769 597.489 749.164 597.439C749.559 597.389 749.959 597.489 750.286 597.72C757.033 602.579 762.495 608.263 766.674 614.774C776.241 629.682 759.869 639.021 749.228 628.325Z" fill="#2A2312"/>
<path d="M488.714 606.475C491.007 606.475 492.866 604.618 492.866 602.326C492.866 600.035 491.007 598.177 488.714 598.177C486.42 598.177 484.561 600.035 484.561 602.326C484.561 604.618 486.42 606.475 488.714 606.475Z" fill="#C09F41"/>
<path d="M558.433 635.898C563.272 635.898 567.195 631.978 567.195 627.142C567.195 622.306 563.272 618.386 558.433 618.386C553.594 618.386 549.671 622.306 549.671 627.142C549.671 631.978 553.594 635.898 558.433 635.898Z" fill="#C09F41"/>
<path d="M229.178 713.532L254.928 650.301C255.072 649.963 255.322 649.686 255.638 649.513C259.364 647.462 259.554 651.974 260.059 654.64C264.753 680.05 269.4 705.518 274 731.044C274.04 731.265 274.033 731.493 273.977 731.712C273.921 731.93 273.819 732.134 273.677 732.311C273.535 732.487 273.356 732.632 273.153 732.734C272.95 732.837 272.727 732.895 272.5 732.905L265.127 733.158C264.743 733.17 264.368 733.04 264.072 732.793C263.775 732.546 263.578 732.199 263.517 731.817L255.007 676.931C254.554 674.008 253.754 673.908 252.607 676.632C244.945 694.722 237.498 712.896 230.267 731.154C228.862 734.672 225.863 738.032 223.652 731.817C216.948 712.938 209.749 694.233 202.055 675.701C200.907 672.945 200.102 673.04 199.639 675.985L190.798 731.753C190.734 732.125 190.543 732.462 190.256 732.705C189.97 732.947 189.608 733.08 189.235 733.079L182.288 733.094C182.055 733.094 181.825 733.042 181.615 732.942C181.404 732.843 181.217 732.699 181.069 732.52C180.92 732.341 180.812 732.132 180.752 731.907C180.693 731.682 180.684 731.446 180.725 731.217C185.83 704.398 190.966 677.841 196.134 651.548C197.303 645.616 200.665 649.749 201.707 652.289C210.054 672.725 218.432 693.144 226.841 713.548C227.62 715.441 228.399 715.436 229.178 713.532Z" fill="#C09F41"/>
<path d="M824.517 688.786C824.924 694.456 824.184 700.152 822.339 705.55C820.494 710.948 817.581 715.941 813.765 720.245C809.949 724.548 805.306 728.077 800.101 730.631C794.896 733.185 789.23 734.714 783.427 735.129C777.624 735.545 771.798 734.84 766.282 733.054C760.765 731.268 755.666 728.436 751.275 724.721C746.884 721.005 743.288 716.478 740.691 711.398C738.095 706.319 736.549 700.786 736.142 695.116C735.736 689.445 736.476 683.748 738.321 678.351C740.166 672.953 743.079 667.96 746.894 663.656C750.71 659.353 755.353 655.824 760.558 653.27C765.764 650.716 771.43 649.187 777.232 648.772C783.035 648.356 788.861 649.061 794.378 650.847C799.895 652.633 804.994 655.465 809.385 659.18C813.775 662.896 817.372 667.423 819.968 672.503C822.565 677.582 824.11 683.115 824.517 688.786ZM814.21 691.619C814.21 687.169 813.333 682.762 811.629 678.651C809.925 674.54 807.427 670.804 804.278 667.657C801.129 664.511 797.39 662.015 793.276 660.312C789.161 658.609 784.752 657.732 780.298 657.732C771.304 657.732 762.678 661.302 756.319 667.657C749.959 674.012 746.386 682.632 746.386 691.619C746.386 700.607 749.959 709.226 756.319 715.581C762.678 721.936 771.304 725.506 780.298 725.506C789.292 725.506 797.918 721.936 804.278 715.581C810.638 709.226 814.21 700.607 814.21 691.619Z" fill="#C09F41"/>
<path d="M892.614 696.478C880.599 693.291 865.98 687.091 865.585 672.656C864.859 645.49 903.586 642.066 913.201 663.601C913.361 663.96 913.383 664.366 913.264 664.738C913.144 665.111 912.891 665.425 912.554 665.62L906.981 668.791C906.795 668.898 906.59 668.966 906.378 668.991C906.165 669.017 905.95 668.999 905.744 668.938C905.539 668.878 905.348 668.776 905.184 668.64C905.019 668.503 904.884 668.335 904.786 668.144C897.76 654.403 873.526 654.466 875.815 673.067C878.089 691.477 921.963 680.781 914.574 716.214C909.649 739.784 868.206 741.835 864.338 715.031C864.292 714.707 864.346 714.377 864.493 714.086C864.64 713.796 864.872 713.558 865.159 713.406L870.637 710.535C870.847 710.424 871.08 710.362 871.317 710.353C871.555 710.343 871.791 710.387 872.008 710.481C872.225 710.575 872.417 710.717 872.571 710.896C872.724 711.074 872.835 711.285 872.895 711.513C875.505 721.357 881.41 725.99 890.609 725.412C908.48 724.292 910.722 701.29 892.614 696.478Z" fill="#C09F41"/>
<path d="M323.905 693.686V722.793C323.905 723.087 324.021 723.37 324.228 723.579C324.435 723.789 324.716 723.909 325.011 723.913L357.612 724.134C357.765 724.133 357.916 724.164 358.056 724.225C358.197 724.285 358.323 724.373 358.428 724.484C358.533 724.594 358.614 724.726 358.667 724.869C358.719 725.012 358.742 725.165 358.733 725.317L358.354 732.022C358.338 732.308 358.213 732.577 358.005 732.773C357.796 732.97 357.52 733.079 357.233 733.079H315.159C314.862 733.079 314.577 732.961 314.366 732.751C314.156 732.541 314.038 732.256 314.038 731.959V652.131C314.038 651.834 314.156 651.549 314.366 651.339C314.577 651.129 314.862 651.011 315.159 651.011L357.581 651.059C357.732 651.059 357.882 651.089 358.021 651.148C358.16 651.207 358.286 651.294 358.391 651.403C358.495 651.512 358.577 651.641 358.63 651.783C358.684 651.924 358.708 652.075 358.702 652.226L358.465 658.615C358.453 658.901 358.332 659.172 358.126 659.372C357.921 659.571 357.646 659.684 357.36 659.688L325.026 659.799C324.729 659.799 324.444 659.917 324.234 660.127C324.024 660.337 323.905 660.622 323.905 660.919V682.658C323.905 682.805 323.934 682.951 323.991 683.087C324.047 683.223 324.13 683.346 324.234 683.45C324.338 683.554 324.461 683.637 324.597 683.693C324.733 683.749 324.879 683.778 325.026 683.778H357.486C357.636 683.778 357.784 683.808 357.922 683.867C358.061 683.925 358.186 684.01 358.29 684.117C358.395 684.225 358.477 684.352 358.531 684.492C358.585 684.631 358.611 684.78 358.607 684.93L358.418 691.319C358.409 691.611 358.288 691.888 358.078 692.091C357.869 692.294 357.589 692.408 357.297 692.408L325.026 692.566C324.729 692.566 324.444 692.684 324.234 692.894C324.024 693.104 323.905 693.389 323.905 693.686Z" fill="#C09F41"/>
<path d="M466.39 725.837V731.422C466.39 731.862 466.215 732.283 465.905 732.593C465.594 732.904 465.172 733.079 464.732 733.079L427.805 733.063C427.368 733.063 426.949 732.891 426.638 732.583C426.328 732.276 426.151 731.859 426.147 731.422L425.721 652.321C425.72 652.095 425.766 651.872 425.855 651.664C425.945 651.457 426.075 651.27 426.239 651.115C426.403 650.96 426.597 650.84 426.81 650.762C427.022 650.685 427.248 650.651 427.473 650.664L434.451 651.106C434.872 651.134 435.265 651.321 435.553 651.629C435.84 651.936 436 652.342 435.999 652.762V722.256C435.999 722.693 436.171 723.112 436.479 723.422C436.786 723.732 437.204 723.909 437.641 723.913L464.748 724.181C465.185 724.185 465.603 724.362 465.91 724.672C466.218 724.982 466.39 725.401 466.39 725.837Z" fill="#C09F41"/>
<path d="M561.393 651.065L554.731 651.053C553.946 651.052 553.309 651.686 553.307 652.47L553.169 731.477C553.168 732.261 553.803 732.898 554.588 732.899L561.25 732.911C562.035 732.912 562.672 732.278 562.674 731.494L562.812 652.487C562.813 651.703 562.178 651.066 561.393 651.065Z" fill="#C09F41"/>
<path d="M639.961 658.19L639.709 652.636C639.7 652.43 639.733 652.224 639.807 652.031C639.88 651.838 639.991 651.662 640.134 651.513C640.277 651.364 640.449 651.246 640.639 651.165C640.829 651.084 641.033 651.043 641.24 651.043H695.85C696.248 651.043 696.631 651.198 696.917 651.474C697.202 651.751 697.369 652.128 697.381 652.526L697.524 658.126C697.53 658.331 697.495 658.535 697.421 658.727C697.347 658.918 697.235 659.092 697.092 659.239C696.949 659.386 696.778 659.503 696.589 659.583C696.4 659.663 696.197 659.704 695.992 659.704L675.642 659.736C675.238 659.736 674.851 659.895 674.564 660.178C674.278 660.462 674.114 660.847 674.11 661.25L673.731 731.564C673.727 731.967 673.564 732.353 673.277 732.636C672.991 732.92 672.603 733.079 672.2 733.079L664.922 733.11C664.721 733.11 664.521 733.071 664.336 732.994C664.15 732.917 663.981 732.804 663.839 732.662C663.697 732.52 663.584 732.351 663.507 732.166C663.43 731.98 663.39 731.781 663.39 731.58L663.311 661.282C663.311 660.879 663.152 660.492 662.868 660.205C662.585 659.919 662.199 659.756 661.796 659.751L641.477 659.641C641.087 659.638 640.713 659.485 640.431 659.216C640.149 658.946 639.981 658.579 639.961 658.19Z" fill="#C09F41"/>
<path d="M780.298 725.506C799.027 725.506 814.21 710.334 814.21 691.619C814.21 672.904 799.027 657.732 780.298 657.732C761.569 657.732 746.386 672.904 746.386 691.619C746.386 710.334 761.569 725.506 780.298 725.506Z" fill="#2A2312"/>
<path d="M372.026 764.505C373.573 766.64 375.284 768.838 377.157 771.099C379.147 773.497 377.047 775.311 374.994 773.465C373.047 771.72 371.211 769.511 369.484 766.84C369.095 766.24 368.616 765.804 368.048 765.53C367.82 765.416 367.568 765.361 367.313 765.368C367.059 765.375 366.81 765.444 366.587 765.57C366.365 765.696 366.176 765.874 366.037 766.09C365.898 766.306 365.813 766.552 365.79 766.808C365.685 768.028 365.669 769.222 365.743 770.389C366.027 775.28 361.938 775.327 361.827 770.815C361.638 763.895 361.738 756.985 362.127 750.085C362.145 749.749 362.27 749.426 362.486 749.165C362.702 748.904 362.997 748.717 363.327 748.634C367.39 747.666 371.405 747.856 375.373 749.202C375.72 749.314 376.016 749.543 376.21 749.849C379.957 755.823 378.81 759.903 372.768 762.091C372.538 762.177 372.33 762.315 372.162 762.493C371.993 762.672 371.868 762.886 371.796 763.12C371.724 763.354 371.708 763.6 371.748 763.84C371.788 764.081 371.883 764.308 372.026 764.505ZM374.142 751.931L367.527 751.127C367.294 751.098 367.059 751.121 366.836 751.194C366.614 751.268 366.411 751.39 366.242 751.551C366.073 751.713 365.941 751.91 365.858 752.129C365.774 752.347 365.74 752.581 365.758 752.815L366.185 757.973C366.213 758.294 366.337 758.598 366.54 758.846C366.742 759.094 367.015 759.273 367.321 759.362C371.953 760.718 374.684 758.846 375.515 753.745C375.548 753.537 375.539 753.324 375.488 753.119C375.436 752.914 375.343 752.721 375.215 752.552C375.087 752.383 374.926 752.241 374.742 752.134C374.557 752.027 374.353 751.958 374.142 751.931Z" fill="#C09F41"/>
<path d="M374.142 751.931C374.353 751.958 374.557 752.027 374.742 752.134C374.926 752.241 375.087 752.383 375.215 752.552C375.343 752.721 375.436 752.914 375.488 753.119C375.539 753.324 375.548 753.537 375.515 753.745C374.684 758.846 371.953 760.718 367.321 759.362C367.015 759.273 366.742 759.094 366.54 758.846C366.337 758.598 366.213 758.294 366.185 757.973L365.758 752.815C365.74 752.581 365.774 752.347 365.858 752.129C365.941 751.91 366.073 751.713 366.242 751.551C366.411 751.39 366.614 751.268 366.836 751.194C367.059 751.121 367.294 751.098 367.527 751.127L374.142 751.931Z" fill="#2A2312"/>
<path d="M474.063 773.213C473.389 769.837 473.242 766.414 473.621 762.943C473.662 762.585 473.584 762.229 473.4 761.933L471.947 759.614C471.815 759.404 471.735 759.166 471.713 758.919C471.691 758.672 471.728 758.424 471.821 758.194C472.674 756.028 473.452 754.392 474.158 753.288C475.978 750.438 476.947 750.706 477.063 754.092L477.11 755.765C477.12 756.018 477.19 756.265 477.313 756.485C477.437 756.705 477.611 756.89 477.82 757.027C479.915 758.394 479.941 759.766 477.899 761.144C477.703 761.277 477.54 761.454 477.422 761.662C477.304 761.87 477.235 762.103 477.22 762.343C477.094 764.347 478.089 774.806 475.057 774.207C474.811 774.161 474.584 774.041 474.407 773.863C474.229 773.686 474.109 773.459 474.063 773.213Z" fill="#C09F41"/>
<path d="M684.546 760.987L683.867 760.639C683.643 760.527 683.45 760.363 683.303 760.16C683.156 759.958 683.06 759.723 683.023 759.475C682.986 759.228 683.009 758.975 683.089 758.739C683.17 758.502 683.307 758.288 683.488 758.115C684.572 757.053 685.125 755.754 685.146 754.219C685.177 753.114 685.951 749.959 687.451 752.325C687.987 753.146 687.972 755.276 688.145 756.396C688.185 756.64 688.281 756.871 688.426 757.071C688.572 757.271 688.762 757.434 688.982 757.547C691.045 758.631 691.103 759.693 689.156 760.734C688.939 760.853 688.752 761.018 688.61 761.218C688.468 761.417 688.374 761.646 688.335 761.886C687.851 765.009 687.682 768.112 687.83 771.194C687.972 774.002 685.493 775.248 685.161 771.856C684.846 768.754 684.919 765.677 685.382 762.627C685.432 762.301 685.379 761.967 685.229 761.672C685.078 761.378 684.84 761.138 684.546 760.987Z" fill="#C09F41"/>
<path d="M400.46 768.843C400.586 769.947 401.113 770.805 402.039 771.415C404.328 772.913 407.596 771.02 409.538 769.6C409.754 769.442 410.008 769.343 410.277 769.312C410.545 769.282 410.818 769.321 411.069 769.427C412.269 769.921 412.459 770.736 411.638 771.872C410.269 773.765 408.359 774.691 405.907 774.649C396.634 774.459 394.182 769.369 398.55 759.377C398.639 759.174 398.769 758.992 398.932 758.843C399.096 758.693 399.288 758.58 399.497 758.51C407.086 756.038 411.506 758.042 412.759 764.521C412.801 764.738 412.797 764.963 412.746 765.179C412.696 765.395 412.599 765.599 412.464 765.776C412.328 765.953 412.156 766.1 411.96 766.207C411.763 766.314 411.546 766.379 411.322 766.398L401.912 767.108C401.702 767.124 401.497 767.181 401.309 767.278C401.121 767.374 400.955 767.507 400.819 767.669C400.684 767.831 400.582 768.018 400.521 768.22C400.459 768.421 400.438 768.633 400.46 768.843ZM401.944 764.047C405.133 765.11 407.243 765.167 408.275 764.221C410.233 762.412 408.875 760.86 404.202 759.567C403.966 759.503 403.718 759.494 403.478 759.541C403.237 759.587 403.01 759.688 402.812 759.835C400.086 761.918 399.797 763.322 401.944 764.047Z" fill="#C09F41"/>
<path d="M435.099 764.079C431.815 756.932 442.503 756.143 445.708 759.235C449.229 762.611 441.666 760.434 440.972 760.087C440.765 759.984 440.537 759.928 440.304 759.926C440.072 759.923 439.841 759.973 439.63 760.071C434.025 762.643 444.003 765.483 445.045 766.76C447.655 769.926 446.871 772.535 442.693 774.585C440.924 775.458 438.435 775.032 435.225 773.308C433.815 772.55 433.472 771.73 434.199 770.847C434.439 770.549 434.778 770.349 435.153 770.282C435.527 770.215 435.912 770.287 436.235 770.484C438.272 771.73 442.535 773.544 442.977 770.452C443.027 770.12 442.967 769.779 442.805 769.48C442.642 769.182 442.387 768.942 442.077 768.796C439.488 767.597 436.314 766.713 435.099 764.079Z" fill="#C09F41"/>
<path d="M513.39 774.018C503.965 776.447 498.408 771.068 501.897 761.555C502.918 758.778 504.865 757.5 507.738 757.721L516.248 758.368C516.644 758.4 517.014 758.578 517.283 758.868C517.552 759.157 517.701 759.536 517.7 759.93V773.008C517.701 773.259 517.642 773.506 517.528 773.73C517.413 773.953 517.248 774.146 517.044 774.293C516.84 774.439 516.604 774.535 516.356 774.572C516.108 774.609 515.854 774.587 515.616 774.507L514.29 774.049C514.001 773.956 513.69 773.946 513.39 774.018ZM508.758 772.103C510.19 772.296 511.647 771.862 512.808 770.897C513.97 769.931 514.741 768.513 514.952 766.954C515.056 766.182 515.02 765.398 514.845 764.648C514.67 763.899 514.36 763.197 513.933 762.583C513.506 761.97 512.969 761.456 512.354 761.073C511.739 760.689 511.058 760.442 510.349 760.346C508.918 760.152 507.461 760.586 506.3 761.552C505.138 762.518 504.367 763.936 504.156 765.495C504.052 766.267 504.088 767.05 504.263 767.8C504.437 768.55 504.747 769.252 505.175 769.865C505.602 770.479 506.138 770.992 506.753 771.376C507.368 771.76 508.05 772.007 508.758 772.103Z" fill="#C09F41"/>
<path d="M539.993 773.308C539.7 773.191 539.449 772.991 539.271 772.732C539.094 772.474 538.999 772.168 538.998 771.856L539.014 759.109C539.013 758.878 539.066 758.649 539.167 758.439C539.268 758.228 539.415 758.042 539.598 757.895C544.255 754.092 537.719 775.469 548.297 771.036C548.55 770.932 548.771 770.761 548.938 770.542C549.104 770.324 549.21 770.064 549.244 769.79C549.45 768.307 549.008 756.506 551.707 757.958C551.892 758.059 552.048 758.204 552.164 758.38C552.279 758.556 552.35 758.758 552.37 758.967C553.049 767.597 553.917 778.956 539.993 773.308Z" fill="#C09F41"/>
<path d="M727.377 771.415C712.821 785.692 705.369 751.332 725.814 758.51C726.162 758.632 726.452 758.867 726.635 759.172C733.061 769.553 722.625 766.571 717.557 766.619C715.389 766.65 714.989 767.507 716.358 769.19C719.368 772.924 722.478 773.145 725.688 769.853C725.964 769.578 726.328 769.41 726.714 769.38C728.704 769.232 728.925 769.911 727.377 771.415ZM722.546 764.268C723.02 764.321 723.478 764.3 723.92 764.205C725.772 763.847 726.051 762.974 724.757 761.586C722.978 759.672 720.82 759.404 718.284 760.782C717.929 760.974 717.664 761.297 717.542 761.681C716.847 763.805 717.963 764.61 720.889 764.094C720.931 764.084 721.483 764.142 722.546 764.268Z" fill="#C09F41"/>
<path d="M577.142 773.781C576.877 773.704 576.644 773.545 576.477 773.326C576.309 773.108 576.216 772.841 576.21 772.566L576.084 759.914C576.079 759.511 576.226 759.122 576.496 758.825C576.766 758.529 577.138 758.349 577.536 758.32C579.694 758.152 581.846 758.021 583.993 757.926C586.756 757.816 587.214 760.056 584.072 760.371C582.883 760.487 581.715 760.692 580.568 760.987C580.236 761.068 579.939 761.256 579.723 761.52C579.506 761.785 579.382 762.112 579.368 762.454C579.304 764.205 580.394 774.696 577.142 773.781Z" fill="#C09F41"/>
<path d="M610.643 774.459C606.412 770.989 605.302 766.655 607.312 761.46C608.238 759.051 610.469 757.937 614.006 758.115L621.521 758.478C621.924 758.498 622.305 758.669 622.587 758.956C622.868 759.243 623.029 759.625 623.036 760.024L623.242 772.03C623.245 772.422 623.105 772.801 622.849 773.095C622.593 773.389 622.238 773.577 621.852 773.623L611.827 774.807C611.617 774.832 611.404 774.814 611.201 774.754C610.997 774.695 610.808 774.594 610.643 774.459ZM620.731 766.272C620.731 764.74 620.123 763.272 619.039 762.189C617.955 761.106 616.486 760.498 614.953 760.498C614.194 760.498 613.443 760.647 612.742 760.937C612.041 761.227 611.404 761.653 610.867 762.189C610.331 762.725 609.905 763.361 609.615 764.062C609.324 764.763 609.175 765.513 609.175 766.272C609.175 767.03 609.324 767.781 609.615 768.481C609.905 769.182 610.331 769.818 610.867 770.354C611.404 770.891 612.041 771.316 612.742 771.606C613.443 771.896 614.194 772.046 614.953 772.046C615.712 772.046 616.463 771.896 617.164 771.606C617.865 771.316 618.502 770.891 619.039 770.354C619.576 769.818 620.001 769.182 620.292 768.481C620.582 767.781 620.731 767.03 620.731 766.272Z" fill="#C09F41"/>
<path d="M653.57 760.482L648.802 760.924C648.422 760.962 648.069 761.136 647.807 761.414C647.546 761.693 647.395 762.057 647.381 762.438L646.923 773.119C646.914 773.431 646.811 773.733 646.628 773.986C646.445 774.239 646.191 774.431 645.897 774.538L645.36 774.728C645.208 774.784 645.044 774.802 644.883 774.781C644.722 774.76 644.568 774.7 644.435 774.608C644.302 774.515 644.193 774.391 644.117 774.247C644.042 774.103 644.003 773.943 644.003 773.781V759.788C644.003 759.375 644.165 758.978 644.454 758.683C644.743 758.388 645.137 758.218 645.55 758.21L651.881 758.084C654.996 758.021 656.801 759.041 657.296 761.144C657.564 762.343 658.669 773.655 657.122 774.728C654.107 776.842 655.196 763.069 655.291 762.217C655.315 761.985 655.288 761.75 655.21 761.529C655.133 761.309 655.007 761.108 654.842 760.942C654.678 760.776 654.478 760.648 654.258 760.569C654.038 760.489 653.803 760.46 653.57 760.482Z" fill="#C09F41"/>
<path d="M401.944 764.047C399.797 763.322 400.086 761.918 402.812 759.835C403.01 759.688 403.237 759.587 403.478 759.541C403.718 759.494 403.966 759.503 404.202 759.567C408.875 760.86 410.233 762.412 408.275 764.221C407.243 765.167 405.133 765.11 401.944 764.047Z" fill="#2A2312"/>
<path d="M720.889 764.094C717.963 764.61 716.847 763.805 717.542 761.681C717.664 761.297 717.929 760.974 718.284 760.782C720.82 759.404 722.978 759.672 724.757 761.586C726.051 762.974 725.772 763.847 723.92 764.205C723.478 764.3 723.02 764.321 722.546 764.268C721.483 764.142 720.931 764.084 720.889 764.094Z" fill="#2A2312"/>
<path d="M614.953 772.046C618.144 772.046 620.731 769.46 620.731 766.272C620.731 763.083 618.144 760.498 614.953 760.498C611.762 760.498 609.175 763.083 609.175 766.272C609.175 769.46 611.762 772.046 614.953 772.046Z" fill="#2A2312"/>
<path d="M504.156 765.495C503.717 768.742 505.777 771.7 508.758 772.103C511.74 772.505 514.512 770.2 514.952 766.954C515.391 763.707 513.33 760.749 510.349 760.346C507.368 759.943 504.595 762.248 504.156 765.495Z" fill="#2A2312"/>
<path d="M351.389 761.796L175.324 762.103C174.591 762.104 173.999 762.698 174 763.43L174 763.462C174.001 764.194 174.596 764.786 175.329 764.785L351.394 764.478C352.126 764.476 352.719 763.882 352.718 763.15L352.718 763.119C352.716 762.387 352.122 761.794 351.389 761.796Z" fill="#C09F41"/>
<path d="M919.658 761.902H743.245C742.504 761.902 741.903 762.502 741.903 763.243V763.274C741.903 764.015 742.504 764.615 743.245 764.615H919.658C920.399 764.615 921 764.015 921 763.274V763.243C921 762.502 920.399 761.902 919.658 761.902Z" fill="#C09F41"/>
<path d="M919.484 792.665H174.489C174.236 792.665 174.031 792.87 174.031 793.123V794.543C174.031 794.795 174.236 795 174.489 795H919.484C919.737 795 919.942 794.795 919.942 794.543V793.123C919.942 792.87 919.737 792.665 919.484 792.665Z" fill="#C09F41"/>
<path d="M424.679 209.548C423.874 245.312 452.008 269.071 486.615 268.346C486.833 268.341 487.05 268.381 487.251 268.465C487.453 268.548 487.635 268.672 487.787 268.829C487.938 268.986 488.055 269.173 488.13 269.378C488.206 269.582 488.238 269.8 488.225 270.018C487.972 274.546 485.699 298.147 496.071 293.004C503.729 289.217 511.78 284.958 519.232 282.229C558.149 267.983 590.767 275.524 626.1 295.339C626.285 295.441 626.489 295.505 626.699 295.528C626.909 295.551 627.122 295.531 627.325 295.471C627.527 295.411 627.716 295.311 627.88 295.177C628.044 295.043 628.179 294.878 628.279 294.692C629.615 292.126 630.284 289.48 630.284 286.756C630.268 278.6 630.994 270.523 631.026 262.508C631.028 262.301 631.071 262.097 631.152 261.906C631.233 261.715 631.351 261.543 631.499 261.398C631.647 261.252 631.822 261.138 632.015 261.061C632.207 260.983 632.413 260.945 632.62 260.947C665.601 261.152 693.403 239.333 694.635 205.478C696.198 162.661 652.923 132.939 613.691 149.362C613.412 149.479 613.104 149.514 612.804 149.46C612.505 149.407 612.226 149.269 612.001 149.062C607.107 144.487 601.802 140.343 596.087 136.631C565.143 116.548 518.68 122.858 495.708 152.58C495.536 152.801 495.31 152.972 495.053 153.077C494.795 153.183 494.515 153.218 494.24 153.18C484.231 151.813 475.874 151.997 469.169 153.732C443.388 160.437 425.263 183.155 424.679 209.548Z" stroke="#C09F41" stroke-width="2"/>
<path d="M429.92 486.498C435.509 488.659 436.804 485.252 436.804 480.661C436.756 454.82 434.814 424.529 438.098 400.739C445.929 344.008 491.824 301.649 549.639 298.147C612.917 294.329 666.264 333.769 677.978 396.385C683.393 425.365 677.141 456.034 680.757 485.409C680.795 485.718 680.923 486.008 681.125 486.243C681.327 486.479 681.595 486.65 681.894 486.735C685.988 487.881 688.056 486.119 688.098 481.45C688.225 467.188 687.893 454.662 688.256 440.589C688.746 421.011 688.493 400.203 683.157 382.028C657.58 294.85 550.034 260.505 478.562 315.958C445.819 341.358 428.847 377.532 428.878 419.323C428.889 441.178 428.899 463.081 428.91 485.031C428.911 485.35 429.008 485.662 429.188 485.924C429.369 486.186 429.624 486.386 429.92 486.498Z" stroke="#C09F41" stroke-width="2"/>
<path d="M550.065 318.151C550.026 318.318 549.945 318.473 549.83 318.601C549.715 318.728 549.569 318.824 549.406 318.879C549.243 318.935 549.069 318.947 548.9 318.917C548.73 318.886 548.572 318.812 548.439 318.703L537.23 309.569C537.156 309.509 537.071 309.467 536.981 309.445C536.89 309.424 536.797 309.423 536.709 309.443C535.083 309.742 543.371 319.176 544.082 320.155C544.997 321.401 544.508 323.357 542.834 321.732C541.792 320.722 535.098 313.481 534.214 314.223C534.09 314.327 534.01 314.474 533.99 314.635C533.969 314.796 534.01 314.958 534.104 315.09C537.451 319.855 542.74 328.816 548.423 330.393C550.844 331.066 553.481 331.271 556.333 331.009C556.713 330.968 557.066 330.797 557.329 330.525C557.592 330.254 557.749 329.899 557.77 329.526C558.527 315.895 550.744 313.655 541.256 307.202C541.177 307.149 541.081 307.126 540.983 307.137C540.885 307.149 540.792 307.194 540.719 307.265C539.203 308.906 550.523 316.132 550.065 318.151Z" stroke="#C09F41" stroke-width="2"/>
<path d="M538.698 359.374C539.011 359.524 539.365 359.566 539.705 359.495C540.044 359.424 540.351 359.242 540.577 358.98C548.566 349.598 556.491 340.343 564.354 331.214C566.459 328.773 568.964 327.475 571.869 327.317C581.846 326.78 586.583 318.877 585.793 309.08C585.757 308.677 585.573 308.303 585.277 308.034C584.98 307.764 584.595 307.619 584.199 307.628C572.221 307.807 565.948 313.639 565.38 325.124C565.359 325.482 565.226 325.82 565.001 326.086C557.486 334.81 546.924 342.273 538.367 350.098C534.751 353.411 532.004 356.219 538.698 359.374Z" stroke="#C09F41" stroke-width="2"/>
<path d="M585.069 357.363C585.651 356.756 585.969 355.943 585.951 355.102C585.933 354.261 585.582 353.462 584.975 352.879L567.814 336.435C567.206 335.853 566.392 335.536 565.551 335.553C564.71 335.571 563.91 335.922 563.327 336.529L563.152 336.711C562.57 337.318 562.252 338.131 562.27 338.972C562.288 339.813 562.639 340.612 563.246 341.194L580.407 357.639C581.015 358.221 581.829 358.538 582.67 358.521C583.511 358.503 584.311 358.152 584.894 357.545L585.069 357.363Z" stroke="#C09F41" stroke-width="2"/>
<path d="M621.064 420.412C619.316 419.076 617.559 417.756 615.791 416.452C603.192 407.223 588.209 406.576 574.332 413.928C574.014 414.101 573.765 414.373 573.621 414.701C572.516 417.246 573.137 419.271 575.484 420.775C575.695 420.911 575.937 420.994 576.19 421.016C576.443 421.038 576.699 420.998 576.937 420.901C601.218 410.93 623.905 423.22 623.89 449.897C623.869 490.389 623.805 530.881 623.7 571.373C623.679 576.327 625.979 577.915 630.6 576.138C630.897 576.026 631.153 575.827 631.333 575.567C631.514 575.308 631.61 575.001 631.61 574.686C631.978 521.29 632.168 467.929 632.178 414.606C632.178 403.111 631.652 395.396 630.6 391.462C625.879 373.872 607.581 361.898 589.883 363.586C577.116 364.817 567.069 370.985 559.744 382.091C559.601 382.307 559.407 382.484 559.179 382.607C558.951 382.73 558.697 382.796 558.438 382.797C558.179 382.799 557.923 382.737 557.694 382.616C557.465 382.496 557.269 382.321 557.123 382.107C551.934 374.472 545.277 369.129 537.151 366.079C514.796 357.67 486.236 372.673 485.099 398.593C484.925 402.6 484.562 406.671 484.578 410.473C484.736 463.901 484.878 517.335 485.004 570.774C485.004 575.112 486.852 579.151 492.093 575.507C492.298 575.366 492.466 575.177 492.584 574.954C492.702 574.732 492.767 574.483 492.772 574.229C492.977 516.52 493.119 459.931 492.882 403.484C492.872 398.404 493.482 394.302 494.714 391.179C501.266 374.598 521.158 366.694 536.915 374.898C546.198 379.709 553.981 389.648 554.013 400.202C554.023 406.587 554.018 412.907 553.997 419.165C553.987 421.5 553.108 421.889 551.361 420.333C537.173 407.68 521.485 405.54 504.297 413.912C500.287 415.868 496.403 419.923 502.087 423.472C502.333 423.629 502.618 423.714 502.911 423.716C503.204 423.719 503.493 423.64 503.744 423.488C519.406 414.075 533.12 414.932 544.887 426.06C550.934 431.755 553.902 438.602 553.981 446.742C554.444 497.741 554.565 548.756 554.344 599.786C554.329 604.282 557.47 605.955 561.417 604.062C561.687 603.933 561.915 603.73 562.074 603.476C562.233 603.222 562.318 602.927 562.317 602.626C562.265 536.492 562.212 470.369 562.159 404.257C562.128 363.665 618.253 360.084 623.842 399.871C624.337 403.447 624.258 409.91 623.605 419.26C623.469 421.206 622.621 421.59 621.064 420.412Z" stroke="#C09F41" stroke-width="2"/>
<path d="M356.096 577.069C356.487 577.192 356.912 577.155 357.278 576.966C357.644 576.777 357.923 576.452 358.054 576.059C368.337 545.222 387.172 521.011 414.559 503.426C414.835 503.25 415.05 502.992 415.172 502.686C415.294 502.38 415.317 502.043 415.237 501.722C414.527 498.851 413.059 500.176 411.701 501.044C385.177 518.05 363.832 544.57 354.786 574.939C354.481 576.001 354.918 576.711 356.096 577.069Z" stroke="#C09F41" stroke-width="2"/>
<path d="M704.755 504.782C728.363 523.461 744.535 547.215 753.271 576.043C753.344 576.291 753.478 576.517 753.66 576.702C753.841 576.886 754.066 577.023 754.313 577.1C756.965 577.921 756.207 574.339 755.749 572.888C746.445 543.018 729.215 518.781 704.06 500.176C702.324 498.893 701.655 499.308 702.055 501.422C702.434 503.394 703.397 503.725 704.755 504.782Z" stroke="#C09F41" stroke-width="2"/>
<path d="M355.449 597.357C351.734 600.891 348.155 604.551 344.714 608.337C336.093 617.771 334.167 635.819 352.371 634.336C369.011 632.995 379.226 612.738 367.859 599.203C367.153 598.361 366.532 597.43 365.996 596.41C365.809 596.047 365.766 595.628 365.878 595.237C365.99 594.847 366.246 594.516 366.595 594.312C373.753 590.158 381.415 588.164 389.583 588.333C405.086 588.664 422.105 601.758 409.775 617.818C408.723 619.196 408.949 619.449 410.454 618.576C410.707 618.428 410.954 618.229 411.196 617.976C417.653 611.334 418.127 602.8 412.317 595.7C400.081 580.792 378.626 584.089 363.785 591.851C359.854 593.918 358.56 592.955 354.676 591.867C350.224 590.594 343.287 590.631 333.867 591.977C328.51 592.734 320.132 595.6 308.733 600.575C293.114 607.39 277.468 614.153 261.796 620.863C244.351 628.341 222.705 635.409 203.997 633.547C175.91 630.755 173.1 586.55 200.871 589.421C204.534 589.816 208.97 591.393 209.696 595.495C210.212 598.345 208.581 599.508 204.802 598.982C204.606 598.955 204.405 598.986 204.226 599.073C204.046 599.16 203.895 599.299 203.792 599.471C203.176 600.528 205.26 601.127 206.018 600.985C211.67 599.955 213.08 596.584 210.249 590.873C210.095 590.565 209.851 590.316 209.554 590.163C173.305 571.721 163.264 635.929 206.697 638.043C242.424 639.779 277.6 619.033 314.512 601.506C325.353 596.352 336.767 593.712 348.755 593.586C350.966 593.555 353.034 593.944 354.96 594.754C355.204 594.854 355.419 595.013 355.585 595.217C355.752 595.421 355.864 595.663 355.913 595.922C355.962 596.181 355.945 596.448 355.864 596.698C355.783 596.949 355.64 597.175 355.449 597.357Z" stroke="#C09F41" stroke-width="2"/>
<path d="M756.238 597.814C753.838 595.553 754.286 594.307 757.58 594.075C774.252 592.94 786.566 597.767 800.965 605.829C824.599 619.033 879.825 651.769 905.291 632.08C921.41 619.601 919.973 584.452 894.381 587.355C889.771 587.875 885.461 590.605 885.288 595.59C885.209 597.751 889.392 603.289 890.861 600.733C890.913 600.641 890.943 600.538 890.946 600.432C890.949 600.326 890.927 600.221 890.88 600.126C890.833 600.031 890.764 599.949 890.678 599.887C890.592 599.825 890.492 599.785 890.387 599.771C887.451 599.402 886.198 597.246 886.63 593.302C886.654 593.054 886.739 592.815 886.877 592.606C887.014 592.397 887.2 592.225 887.419 592.103C904.77 582.243 916.548 600.417 911.938 615.073C901.312 648.85 855.717 628.388 834.972 618.323C821.805 611.929 808.654 605.513 795.518 599.076C782.683 592.798 765.806 588.08 751.028 593.586C750.778 593.683 750.506 593.713 750.238 593.674C749.97 593.636 749.715 593.53 749.497 593.365C736.44 583.127 714.353 580.918 703.854 595.669C698.707 602.873 699.002 610.03 704.738 617.14C704.788 617.205 704.85 617.26 704.921 617.301C704.991 617.341 705.069 617.367 705.149 617.377C706.175 617.519 705.954 616.509 705.622 615.957C694.397 596.962 717.732 584.941 734.025 589.532C738.856 590.899 742.661 592.645 745.439 594.77C745.764 595.02 745.98 595.386 746.042 595.792C746.104 596.197 746.007 596.611 745.771 596.947C726.004 624.476 764.211 647.115 770.747 627.032C773.984 617.061 762.127 603.368 756.238 597.814Z" stroke="#C09F41" stroke-width="2"/>
<path d="M631.893 598.177C631.893 597.085 631.459 596.038 630.687 595.266C629.914 594.493 628.866 594.06 627.773 594.06C626.68 594.06 625.632 594.493 624.859 595.266C624.086 596.038 623.652 597.085 623.652 598.177C623.652 599.269 624.086 600.316 624.859 601.089C625.632 601.861 626.68 602.295 627.773 602.295C628.866 602.295 629.914 601.861 630.687 601.089C631.459 600.316 631.893 599.269 631.893 598.177Z" stroke="#C09F41" stroke-width="2"/>
<path d="M492.866 602.326C492.866 601.226 492.428 600.17 491.65 599.392C490.871 598.614 489.815 598.177 488.714 598.177C487.612 598.177 486.556 598.614 485.778 599.392C484.999 600.17 484.561 601.226 484.561 602.326C484.561 603.427 484.999 604.482 485.778 605.26C486.556 606.038 487.612 606.475 488.714 606.475C489.815 606.475 490.871 606.038 491.65 605.26C492.428 604.482 492.866 603.427 492.866 602.326Z" stroke="#C09F41" stroke-width="2"/>
<path d="M567.195 627.142C567.195 624.82 566.272 622.593 564.629 620.951C562.985 619.309 560.757 618.386 558.433 618.386C557.282 618.386 556.143 618.613 555.08 619.053C554.017 619.493 553.051 620.138 552.237 620.951C551.423 621.764 550.778 622.729 550.338 623.791C549.897 624.854 549.671 625.992 549.671 627.142C549.671 628.292 549.897 629.431 550.338 630.493C550.778 631.555 551.423 632.52 552.237 633.333C553.051 634.146 554.017 634.791 555.08 635.231C556.143 635.671 557.282 635.898 558.433 635.898C560.757 635.898 562.985 634.975 564.629 633.333C566.272 631.691 567.195 629.464 567.195 627.142Z" stroke="#C09F41" stroke-width="2"/>
<path d="M226.842 713.548C218.432 693.144 210.054 672.725 201.707 652.289C200.665 649.749 197.303 645.616 196.134 651.548C190.966 677.841 185.83 704.398 180.725 731.217C180.684 731.446 180.693 731.682 180.752 731.907C180.812 732.132 180.92 732.341 181.069 732.52C181.218 732.699 181.404 732.843 181.615 732.943C181.825 733.042 182.055 733.094 182.288 733.095L189.235 733.079C189.608 733.08 189.97 732.947 190.257 732.705C190.543 732.462 190.735 732.125 190.798 731.754L199.639 675.985C200.102 673.04 200.907 672.946 202.055 675.701C209.749 694.233 216.948 712.938 223.652 731.817C225.863 738.033 228.862 734.672 230.268 731.154C237.498 712.896 244.945 694.722 252.607 676.632C253.755 673.908 254.554 674.008 255.007 676.932L263.517 731.817C263.578 732.199 263.775 732.547 264.072 732.793C264.368 733.04 264.743 733.17 265.127 733.158L272.5 732.905C272.727 732.895 272.95 732.837 273.153 732.734C273.356 732.632 273.535 732.487 273.677 732.311C273.819 732.135 273.921 731.93 273.977 731.712C274.033 731.493 274.04 731.265 274 731.044C269.4 705.518 264.753 680.05 260.059 654.64C259.554 651.974 259.364 647.462 255.639 649.513C255.322 649.686 255.072 649.964 254.928 650.301L229.178 713.532C228.399 715.436 227.62 715.441 226.842 713.548Z" stroke="#C09F41" stroke-width="2"/>
<path d="M824.518 688.786C824.112 683.115 822.566 677.582 819.969 672.503C817.373 667.423 813.777 662.896 809.386 659.18C804.995 655.465 799.896 652.633 794.379 650.847C788.863 649.061 783.036 648.356 777.234 648.772C771.431 649.187 765.765 650.716 760.56 653.27C755.354 655.824 750.711 659.353 746.896 663.656C743.08 667.96 740.167 672.953 738.322 678.351C736.477 683.749 735.737 689.445 736.144 695.116C736.551 700.786 738.096 706.319 740.693 711.398C743.289 716.478 746.885 721.005 751.276 724.721C755.667 728.436 760.766 731.268 766.283 733.054C771.8 734.84 777.626 735.545 783.428 735.129C789.231 734.714 794.897 733.185 800.102 730.631C805.308 728.078 809.951 724.548 813.766 720.245C817.582 715.941 820.495 710.948 822.34 705.55C824.185 700.153 824.925 694.456 824.518 688.786Z" stroke="#C09F41" stroke-width="2"/>
<path d="M865.585 672.656C865.979 687.091 880.599 693.291 892.614 696.478C910.722 701.29 908.48 724.292 890.608 725.412C881.409 725.99 875.505 721.357 872.895 711.513C872.835 711.285 872.724 711.074 872.571 710.896C872.417 710.717 872.225 710.575 872.008 710.481C871.791 710.387 871.555 710.343 871.317 710.352C871.08 710.362 870.847 710.424 870.637 710.535L865.159 713.406C864.872 713.558 864.64 713.796 864.493 714.086C864.346 714.377 864.292 714.707 864.338 715.031C868.206 741.835 909.649 739.784 914.574 716.214C921.963 680.781 878.089 691.477 875.815 673.066C873.526 654.466 897.76 654.403 904.786 668.144C904.884 668.335 905.019 668.503 905.184 668.64C905.348 668.776 905.539 668.878 905.744 668.938C905.95 668.999 906.165 669.017 906.378 668.991C906.59 668.966 906.795 668.898 906.98 668.791L912.554 665.62C912.891 665.425 913.144 665.111 913.263 664.738C913.383 664.365 913.361 663.96 913.201 663.601C903.586 642.066 864.859 645.49 865.585 672.656Z" stroke="#C09F41" stroke-width="2"/>
<path d="M323.905 693.686C323.905 693.389 324.024 693.104 324.234 692.894C324.444 692.684 324.729 692.566 325.026 692.566L357.297 692.408C357.589 692.408 357.869 692.294 358.078 692.091C358.288 691.888 358.409 691.611 358.418 691.319L358.607 684.93C358.611 684.78 358.585 684.631 358.531 684.492C358.477 684.352 358.395 684.225 358.29 684.118C358.186 684.01 358.061 683.925 357.923 683.867C357.784 683.808 357.636 683.778 357.486 683.778H325.026C324.879 683.778 324.733 683.75 324.597 683.693C324.461 683.637 324.338 683.554 324.234 683.45C324.13 683.346 324.047 683.223 323.991 683.087C323.934 682.951 323.905 682.805 323.905 682.658V660.919C323.905 660.622 324.024 660.337 324.234 660.127C324.444 659.917 324.729 659.799 325.026 659.799L357.36 659.688C357.646 659.685 357.921 659.571 358.126 659.372C358.332 659.172 358.453 658.902 358.465 658.615L358.702 652.226C358.708 652.075 358.684 651.924 358.63 651.783C358.577 651.642 358.495 651.512 358.391 651.403C358.286 651.294 358.16 651.208 358.021 651.148C357.882 651.089 357.732 651.059 357.581 651.059L315.159 651.011C314.862 651.011 314.577 651.129 314.366 651.34C314.156 651.55 314.038 651.834 314.038 652.132V731.959C314.038 732.256 314.156 732.541 314.366 732.751C314.577 732.961 314.862 733.079 315.159 733.079H357.234C357.52 733.079 357.796 732.97 358.005 732.773C358.213 732.577 358.338 732.308 358.354 732.022L358.733 725.317C358.742 725.165 358.719 725.012 358.667 724.869C358.614 724.726 358.533 724.595 358.428 724.484C358.323 724.373 358.197 724.285 358.057 724.225C357.916 724.165 357.765 724.134 357.612 724.134L325.011 723.913C324.716 723.909 324.435 723.789 324.228 723.579C324.021 723.37 323.905 723.087 323.905 722.793V693.686Z" stroke="#C09F41" stroke-width="2"/>
<path d="M466.39 725.838C466.39 725.401 466.218 724.982 465.91 724.672C465.603 724.362 465.185 724.185 464.748 724.181L437.641 723.913C437.204 723.909 436.786 723.733 436.479 723.422C436.171 723.112 435.999 722.693 435.999 722.257V652.763C436 652.342 435.84 651.936 435.553 651.629C435.265 651.321 434.872 651.134 434.451 651.106L427.473 650.664C427.248 650.652 427.022 650.685 426.81 650.762C426.598 650.84 426.403 650.96 426.239 651.115C426.075 651.27 425.945 651.457 425.855 651.664C425.766 651.872 425.72 652.095 425.721 652.321L426.147 731.422C426.151 731.859 426.328 732.276 426.638 732.584C426.949 732.891 427.368 733.063 427.805 733.063L464.732 733.079C465.172 733.079 465.594 732.904 465.905 732.594C466.216 732.283 466.39 731.862 466.39 731.422V725.838Z" stroke="#C09F41" stroke-width="2"/>
<path d="M562.812 652.487C562.813 652.301 562.776 652.116 562.705 651.943C562.634 651.771 562.53 651.614 562.398 651.482C562.266 651.35 562.11 651.245 561.937 651.174C561.765 651.102 561.58 651.065 561.394 651.065L554.731 651.053C554.545 651.053 554.36 651.089 554.187 651.16C554.015 651.231 553.858 651.336 553.726 651.467C553.594 651.599 553.489 651.755 553.417 651.927C553.345 652.099 553.308 652.284 553.308 652.47L553.17 731.477C553.17 731.664 553.206 731.848 553.277 732.021C553.348 732.193 553.453 732.35 553.584 732.482C553.716 732.614 553.873 732.719 554.045 732.79C554.217 732.862 554.402 732.899 554.588 732.899L561.251 732.911C561.437 732.911 561.622 732.875 561.795 732.804C561.967 732.733 562.124 732.628 562.256 732.497C562.388 732.365 562.493 732.209 562.565 732.037C562.637 731.865 562.674 731.68 562.674 731.494L562.812 652.487Z" stroke="#C09F41" stroke-width="2"/>
<path d="M639.962 658.19C639.982 658.579 640.15 658.946 640.432 659.216C640.713 659.485 641.087 659.638 641.477 659.641L661.796 659.751C662.2 659.756 662.585 659.919 662.869 660.205C663.153 660.492 663.312 660.879 663.312 661.282L663.391 731.58C663.391 731.781 663.431 731.98 663.507 732.166C663.584 732.351 663.697 732.52 663.839 732.662C663.982 732.804 664.15 732.917 664.336 732.994C664.522 733.071 664.721 733.11 664.922 733.11L672.2 733.079C672.604 733.079 672.991 732.92 673.278 732.636C673.565 732.353 673.728 731.967 673.732 731.564L674.111 661.25C674.115 660.847 674.278 660.462 674.565 660.178C674.852 659.895 675.239 659.736 675.642 659.736L695.993 659.704C696.198 659.704 696.401 659.663 696.59 659.583C696.779 659.503 696.95 659.386 697.093 659.239C697.235 659.092 697.347 658.918 697.421 658.727C697.496 658.536 697.53 658.331 697.524 658.126L697.382 652.526C697.37 652.128 697.203 651.751 696.917 651.474C696.631 651.198 696.249 651.043 695.851 651.043H641.241C641.034 651.043 640.83 651.084 640.64 651.165C640.45 651.246 640.278 651.364 640.135 651.513C639.992 651.662 639.88 651.838 639.807 652.031C639.734 652.224 639.701 652.43 639.709 652.636L639.962 658.19Z" stroke="#C09F41" stroke-width="2"/>
<path d="M372.026 764.505C371.883 764.308 371.788 764.081 371.748 763.841C371.708 763.6 371.724 763.354 371.796 763.12C371.868 762.886 371.993 762.672 372.162 762.493C372.331 762.315 372.538 762.177 372.768 762.091C378.81 759.903 379.957 755.823 376.21 749.849C376.016 749.543 375.72 749.314 375.373 749.202C371.405 747.856 367.39 747.666 363.327 748.634C362.997 748.718 362.702 748.904 362.486 749.165C362.271 749.426 362.145 749.749 362.127 750.086C361.738 756.985 361.638 763.895 361.827 770.815C361.938 775.327 366.027 775.28 365.743 770.389C365.669 769.222 365.685 768.028 365.79 766.808C365.813 766.553 365.898 766.306 366.037 766.09C366.176 765.875 366.365 765.696 366.587 765.57C366.81 765.444 367.059 765.375 367.314 765.368C367.568 765.361 367.82 765.417 368.048 765.53C368.616 765.804 369.095 766.24 369.485 766.84C371.211 769.511 373.047 771.72 374.994 773.466C377.047 775.311 379.147 773.497 377.157 771.099C375.284 768.838 373.574 766.64 372.026 764.505Z" stroke="#C09F41" stroke-width="2"/>
<path d="M475.058 774.207C478.089 774.807 477.095 764.347 477.221 762.344C477.236 762.103 477.305 761.87 477.423 761.663C477.54 761.455 477.704 761.277 477.9 761.145C479.942 759.767 479.915 758.394 477.821 757.027C477.611 756.891 477.438 756.705 477.314 756.485C477.19 756.266 477.121 756.019 477.11 755.765L477.063 754.093C476.947 750.706 475.979 750.438 474.158 753.288C473.453 754.392 472.674 756.028 471.822 758.194C471.728 758.424 471.691 758.673 471.713 758.92C471.735 759.167 471.816 759.405 471.948 759.614L473.4 761.933C473.584 762.23 473.662 762.586 473.621 762.943C473.242 766.414 473.39 769.837 474.063 773.213C474.11 773.46 474.23 773.686 474.407 773.864C474.585 774.041 474.811 774.161 475.058 774.207Z" stroke="#C09F41" stroke-width="2"/>
<path d="M685.382 762.627C684.919 765.677 684.846 768.754 685.162 771.856C685.493 775.248 687.972 774.002 687.83 771.194C687.682 768.112 687.851 765.01 688.335 761.886C688.374 761.646 688.468 761.417 688.61 761.218C688.752 761.018 688.939 760.853 689.156 760.734C691.103 759.693 691.045 758.631 688.982 757.548C688.762 757.434 688.572 757.271 688.426 757.071C688.281 756.871 688.185 756.64 688.145 756.396C687.972 755.276 687.987 753.146 687.451 752.326C685.951 749.959 685.177 753.114 685.146 754.219C685.125 755.754 684.572 757.053 683.488 758.115C683.307 758.288 683.17 758.502 683.089 758.739C683.009 758.976 682.986 759.228 683.023 759.476C683.06 759.723 683.156 759.958 683.303 760.16C683.45 760.363 683.643 760.527 683.867 760.64L684.546 760.987C684.84 761.138 685.078 761.378 685.229 761.672C685.379 761.967 685.433 762.301 685.382 762.627Z" stroke="#C09F41" stroke-width="2"/>
<path d="M401.913 767.108L411.322 766.398C411.546 766.38 411.763 766.315 411.96 766.207C412.156 766.1 412.328 765.953 412.464 765.776C412.599 765.599 412.696 765.396 412.747 765.179C412.797 764.963 412.802 764.738 412.759 764.521C411.506 758.042 407.086 756.038 399.497 758.51C399.288 758.58 399.096 758.693 398.933 758.843C398.77 758.992 398.639 759.174 398.55 759.378C394.182 769.369 396.634 774.46 405.907 774.649C408.359 774.691 410.27 773.766 411.638 771.872C412.459 770.737 412.269 769.921 411.07 769.427C410.818 769.322 410.545 769.282 410.277 769.313C410.009 769.343 409.754 769.442 409.538 769.601C407.596 771.02 404.328 772.914 402.039 771.415C401.113 770.805 400.586 769.948 400.46 768.843C400.438 768.634 400.459 768.422 400.521 768.22C400.583 768.018 400.684 767.831 400.82 767.669C400.955 767.507 401.121 767.374 401.309 767.278C401.497 767.181 401.702 767.124 401.913 767.108Z" stroke="#C09F41" stroke-width="2"/>
<path d="M435.099 764.079C436.314 766.714 439.488 767.597 442.077 768.796C442.387 768.942 442.642 769.182 442.805 769.481C442.967 769.779 443.027 770.12 442.977 770.452C442.535 773.545 438.272 771.73 436.235 770.484C435.912 770.287 435.527 770.216 435.153 770.283C434.778 770.349 434.439 770.55 434.199 770.847C433.473 771.73 433.815 772.551 435.225 773.308C438.435 775.033 440.924 775.459 442.693 774.586C446.871 772.535 447.655 769.927 445.045 766.761C444.003 765.483 434.025 762.643 439.63 760.072C439.841 759.973 440.072 759.923 440.304 759.926C440.537 759.929 440.765 759.984 440.972 760.088C441.666 760.435 449.229 762.612 445.708 759.236C442.503 756.144 431.815 756.932 435.099 764.079Z" stroke="#C09F41" stroke-width="2"/>
<path d="M501.897 761.555C498.408 771.068 503.965 776.447 513.39 774.018C513.69 773.946 514.001 773.956 514.29 774.049L515.616 774.507C515.854 774.587 516.108 774.609 516.356 774.572C516.604 774.535 516.84 774.439 517.044 774.293C517.248 774.146 517.413 773.953 517.528 773.73C517.642 773.506 517.701 773.259 517.7 773.008V759.93C517.701 759.536 517.552 759.157 517.283 758.868C517.014 758.578 516.644 758.4 516.248 758.368L507.738 757.721C504.865 757.5 502.918 758.778 501.897 761.555Z" stroke="#C09F41" stroke-width="2"/>
<path d="M539.993 773.308C553.918 778.956 553.049 767.597 552.37 758.967C552.35 758.758 552.28 758.556 552.164 758.381C552.048 758.205 551.892 758.06 551.707 757.958C549.008 756.506 549.45 768.307 549.244 769.79C549.21 770.064 549.104 770.324 548.938 770.543C548.771 770.762 548.55 770.932 548.297 771.036C537.719 775.469 544.255 754.093 539.598 757.895C539.415 758.043 539.268 758.228 539.167 758.439C539.066 758.649 539.013 758.878 539.014 759.109L538.998 771.857C538.999 772.169 539.094 772.474 539.271 772.732C539.449 772.991 539.7 773.191 539.993 773.308Z" stroke="#C09F41" stroke-width="2"/>
<path d="M725.815 758.51C705.369 751.332 712.821 785.692 727.378 771.415C728.925 769.911 728.704 769.232 726.715 769.38C726.328 769.41 725.964 769.578 725.688 769.853C722.478 773.145 719.368 772.924 716.358 769.19C714.989 767.508 715.389 766.65 717.558 766.619C722.626 766.572 733.061 769.553 726.636 759.173C726.452 758.867 726.162 758.632 725.815 758.51Z" stroke="#C09F41" stroke-width="2"/>
<path d="M577.142 773.781C580.394 774.696 579.305 764.205 579.368 762.454C579.382 762.113 579.506 761.785 579.723 761.52C579.939 761.256 580.236 761.069 580.568 760.987C581.715 760.692 582.883 760.487 584.073 760.371C587.214 760.056 586.756 757.816 583.994 757.926C581.846 758.021 579.694 758.152 577.536 758.321C577.138 758.349 576.766 758.529 576.496 758.826C576.226 759.122 576.079 759.511 576.084 759.914L576.21 772.566C576.216 772.842 576.309 773.108 576.477 773.326C576.644 773.545 576.877 773.704 577.142 773.781Z" stroke="#C09F41" stroke-width="2"/>
<path d="M610.643 774.46C610.808 774.595 610.997 774.695 611.201 774.754C611.404 774.814 611.617 774.832 611.827 774.807L621.852 773.623C622.238 773.577 622.593 773.389 622.849 773.095C623.105 772.801 623.245 772.422 623.242 772.03L623.036 760.024C623.029 759.625 622.868 759.243 622.587 758.956C622.305 758.669 621.924 758.498 621.521 758.478L614.006 758.116C610.469 757.937 608.238 759.052 607.312 761.46C605.302 766.656 606.412 770.989 610.643 774.46Z" stroke="#C09F41" stroke-width="2"/>
<path d="M653.57 760.482C653.803 760.46 654.038 760.489 654.258 760.569C654.478 760.648 654.678 760.776 654.842 760.942C655.007 761.108 655.133 761.309 655.21 761.529C655.288 761.75 655.315 761.985 655.291 762.217C655.196 763.069 654.107 776.842 657.122 774.728C658.67 773.655 657.564 762.343 657.296 761.144C656.801 759.041 654.996 758.021 651.881 758.084L645.55 758.21C645.137 758.218 644.743 758.388 644.454 758.683C644.165 758.978 644.003 759.375 644.003 759.788V773.781C644.003 773.943 644.042 774.103 644.118 774.247C644.193 774.391 644.302 774.515 644.435 774.608C644.568 774.7 644.722 774.76 644.883 774.781C645.044 774.802 645.208 774.784 645.36 774.728L645.897 774.538C646.191 774.431 646.445 774.239 646.628 773.986C646.811 773.733 646.914 773.431 646.923 773.119L647.381 762.438C647.395 762.057 647.546 761.693 647.807 761.414C648.069 761.136 648.422 760.962 648.802 760.924L653.57 760.482Z" stroke="#C09F41" stroke-width="2"/>
<path d="M352.718 763.118C352.717 762.944 352.683 762.772 352.616 762.611C352.549 762.451 352.451 762.305 352.328 762.182C352.204 762.059 352.058 761.962 351.897 761.896C351.736 761.829 351.563 761.795 351.389 761.796L175.324 762.103C175.15 762.103 174.977 762.137 174.816 762.204C174.656 762.271 174.51 762.369 174.387 762.492C174.264 762.616 174.166 762.762 174.1 762.923C174.034 763.084 174 763.256 174 763.43V763.462C174 763.636 174.035 763.808 174.102 763.969C174.169 764.129 174.267 764.275 174.39 764.398C174.513 764.521 174.66 764.618 174.821 764.685C174.982 764.751 175.154 764.785 175.329 764.784L351.394 764.478C351.568 764.477 351.74 764.443 351.901 764.376C352.062 764.309 352.208 764.211 352.331 764.088C352.454 763.964 352.551 763.818 352.618 763.657C352.684 763.496 352.718 763.324 352.718 763.15V763.118Z" stroke="#C09F41" stroke-width="2"/>
<path d="M921 763.243C921 762.887 920.859 762.546 920.607 762.295C920.355 762.043 920.014 761.902 919.658 761.902H743.245C742.889 761.902 742.548 762.043 742.296 762.295C742.045 762.546 741.903 762.887 741.903 763.243V763.274C741.903 763.63 742.045 763.971 742.296 764.222C742.548 764.474 742.889 764.615 743.245 764.615H919.658C920.014 764.615 920.355 764.474 920.607 764.222C920.859 763.971 921 763.63 921 763.274V763.243Z" stroke="#C09F41" stroke-width="2"/>
<path d="M919.942 793.123C919.942 793.001 919.894 792.885 919.808 792.799C919.722 792.713 919.605 792.665 919.484 792.665H174.489C174.368 792.665 174.251 792.713 174.165 792.799C174.079 792.885 174.031 793.001 174.031 793.123V794.543C174.031 794.664 174.079 794.78 174.165 794.866C174.251 794.952 174.368 795 174.489 795H919.484C919.605 795 919.722 794.952 919.808 794.866C919.894 794.78 919.942 794.664 919.942 794.543V793.123Z" stroke="#C09F41" stroke-width="2"/>
<path d="M494.382 184.811C491.729 177.412 492.708 166.574 492.787 158.575C492.791 158.197 492.658 157.83 492.412 157.54C492.165 157.251 491.822 157.058 491.445 156.998C480.267 155.294 470.358 156.43 461.717 160.405C406.617 185.773 423.731 268.172 486.519 264.433C486.921 264.409 487.299 264.234 487.574 263.944C487.85 263.653 488.004 263.27 488.003 262.871L488.114 250.408C488.114 250.126 488.04 249.849 487.899 249.605C487.757 249.361 487.554 249.159 487.309 249.02C474.163 241.521 467.405 230.11 467.037 214.786C467.037 214.736 467.04 214.687 467.048 214.64C467.055 214.594 467.067 214.552 467.08 214.518C467.094 214.484 467.11 214.459 467.128 214.446C467.145 214.432 467.162 214.429 467.179 214.439L467.574 214.549C467.687 214.581 467.789 214.646 467.867 214.735C467.945 214.825 467.997 214.935 468.016 215.054C469.753 224.709 478.467 244.697 490.466 244.05C490.766 244.04 491.051 243.947 491.287 243.782C500.802 237.219 511.09 232.181 522.152 228.669C522.547 228.543 522.875 228.265 523.067 227.896C523.259 227.528 523.299 227.097 523.178 226.697L519.989 216.3C519.93 216.123 519.936 215.931 520.005 215.758C520.075 215.584 520.203 215.441 520.368 215.354C520.958 215.038 521.373 215.291 521.615 216.111C535.414 263.376 641.382 263.171 654.912 214.581C654.932 214.501 654.97 214.425 655.024 214.357C655.079 214.289 655.148 214.231 655.228 214.186C655.817 213.871 656.017 214.228 655.828 215.259C653.659 227.407 646.308 237.424 633.772 245.312C631.225 246.911 630.151 248.704 630.551 250.692L631.593 255.819C631.665 256.17 631.852 256.486 632.125 256.715C632.397 256.945 632.739 257.074 633.093 257.081C692.487 258.612 713.532 181.119 660.248 154.426C645.944 147.264 631.646 146.591 617.353 152.407C617.111 152.504 616.898 152.659 616.73 152.858C616.563 153.057 616.448 153.294 616.395 153.549C616.342 153.803 616.352 154.067 616.426 154.316C616.499 154.566 616.633 154.793 616.816 154.978C626.573 164.854 638.535 170.302 652.702 171.322C653.028 171.343 653.323 171.443 653.586 171.622C654.301 172.095 654.233 172.348 653.38 172.379C634.74 173.137 619.758 166.774 608.433 153.29C604.244 148.295 601.349 145.139 599.749 143.825C575.815 124.199 534.909 123.663 510.564 143.052C504.344 148.005 498.202 153.196 496.355 160.011C494.524 166.784 494.113 174.967 495.124 184.559C495.133 184.63 495.129 184.701 495.109 184.764C495.09 184.828 495.057 184.882 495.013 184.921L494.871 185.032C494.836 185.063 494.793 185.081 494.746 185.086C494.699 185.091 494.649 185.083 494.601 185.061C494.552 185.039 494.507 185.005 494.469 184.961C494.431 184.918 494.401 184.866 494.382 184.811Z" stroke="#C09F41" stroke-width="2"/>
<path d="M580.631 273.331C595.871 276.213 610.27 281.729 623.826 289.88C624.059 290.023 624.325 290.102 624.598 290.109C624.871 290.117 625.141 290.052 625.383 289.921C625.624 289.79 625.827 289.598 625.972 289.364C626.117 289.13 626.199 288.862 626.21 288.586C626.452 281.95 626.794 275.166 627.236 268.235C627.599 262.698 626.826 257.239 626.605 251.828C626.594 251.578 626.524 251.333 626.4 251.116C626.276 250.898 626.102 250.712 625.892 250.575C625.682 250.438 625.442 250.353 625.193 250.326C624.944 250.3 624.691 250.334 624.457 250.424C594.192 262.067 553.618 260.521 529.983 235.705C526.936 232.518 525.01 231.319 520.842 232.912C512.317 236.194 504.128 240.038 496.276 244.445C493.529 245.991 492.156 248.084 492.156 250.724V288.934C492.156 290.764 492.945 291.216 494.524 290.29C521.332 274.735 549.686 267.494 580.631 273.331Z" stroke="#C09F41" stroke-width="2"/>
<path d="M342.914 629.919C355.433 643.502 384.357 614.316 363.106 598.004C362.859 597.812 362.56 597.699 362.247 597.679C361.935 597.66 361.623 597.734 361.354 597.893C353.176 602.642 332.841 618.986 342.914 629.919Z" stroke="#C09F41" stroke-width="2"/>
<path d="M749.229 628.325C759.87 639.022 776.242 629.682 766.674 614.774C762.496 608.263 757.033 602.579 750.287 597.72C749.96 597.49 749.559 597.389 749.165 597.439C748.77 597.489 748.41 597.685 748.155 597.988C739.251 608.558 739.609 618.67 749.229 628.325Z" stroke="#C09F41" stroke-width="2"/>
<path d="M814.211 691.619C814.211 687.169 813.334 682.762 811.63 678.651C809.926 674.54 807.428 670.804 804.279 667.657C801.13 664.511 797.391 662.014 793.277 660.311C789.162 658.609 784.753 657.732 780.299 657.732C771.305 657.732 762.679 661.302 756.32 667.657C749.96 674.012 746.387 682.632 746.387 691.619C746.387 700.607 749.96 709.226 756.32 715.581C762.679 721.936 771.305 725.506 780.299 725.506C789.293 725.506 797.919 721.936 804.279 715.581C810.639 709.226 814.211 700.607 814.211 691.619Z" stroke="#C09F41" stroke-width="2"/>
<path d="M374.142 751.931L367.527 751.127C367.295 751.098 367.059 751.121 366.837 751.195C366.614 751.268 366.411 751.39 366.242 751.552C366.073 751.713 365.942 751.91 365.858 752.129C365.775 752.347 365.741 752.582 365.759 752.815L366.185 757.974C366.213 758.294 366.337 758.598 366.54 758.846C366.743 759.094 367.015 759.274 367.322 759.362C371.953 760.719 374.684 758.846 375.516 753.745C375.549 753.537 375.539 753.324 375.488 753.119C375.436 752.914 375.344 752.721 375.216 752.552C375.088 752.383 374.927 752.241 374.742 752.134C374.558 752.027 374.354 751.959 374.142 751.931Z" stroke="#C09F41" stroke-width="2"/>
<path d="M401.944 764.047C405.134 765.11 407.244 765.167 408.275 764.221C410.233 762.412 408.875 760.861 404.202 759.567C403.966 759.503 403.719 759.495 403.478 759.541C403.237 759.587 403.01 759.688 402.813 759.835C400.087 761.918 399.797 763.322 401.944 764.047Z" stroke="#C09F41" stroke-width="2"/>
<path d="M508.759 772.103C510.19 772.296 511.647 771.862 512.808 770.897C513.97 769.931 514.741 768.513 514.952 766.954C515.056 766.182 515.02 765.398 514.845 764.649C514.67 763.899 514.361 763.197 513.933 762.584C513.506 761.97 512.969 761.456 512.355 761.073C511.74 760.689 511.058 760.442 510.349 760.346C508.918 760.153 507.461 760.586 506.3 761.552C505.138 762.518 504.367 763.936 504.156 765.495C504.052 766.267 504.088 767.05 504.263 767.8C504.438 768.55 504.747 769.252 505.175 769.865C505.602 770.479 506.139 770.992 506.754 771.376C507.368 771.76 508.05 772.007 508.759 772.103Z" stroke="#C09F41" stroke-width="2"/>
<path d="M722.547 764.268C723.021 764.321 723.479 764.3 723.921 764.205C725.773 763.847 726.052 762.974 724.758 761.586C722.979 759.672 720.821 759.404 718.285 760.782C717.93 760.974 717.664 761.297 717.543 761.681C716.848 763.805 717.964 764.61 720.89 764.095C720.932 764.084 721.484 764.142 722.547 764.268Z" stroke="#C09F41" stroke-width="2"/>
<path d="M620.732 766.272C620.732 764.74 620.123 763.272 619.04 762.189C617.956 761.106 616.486 760.498 614.954 760.498C614.195 760.498 613.444 760.647 612.742 760.937C612.041 761.228 611.404 761.653 610.868 762.189C610.331 762.725 609.906 763.362 609.615 764.062C609.325 764.763 609.175 765.514 609.175 766.272C609.175 767.03 609.325 767.781 609.615 768.481C609.906 769.182 610.331 769.818 610.868 770.355C611.404 770.891 612.041 771.316 612.742 771.606C613.444 771.897 614.195 772.046 614.954 772.046C615.713 772.046 616.464 771.897 617.165 771.606C617.866 771.316 618.503 770.891 619.04 770.355C619.576 769.818 620.002 769.182 620.292 768.481C620.583 767.781 620.732 767.03 620.732 766.272Z" stroke="#C09F41" stroke-width="2"/>
</svg>
